<?xml version="1.0" encoding="UTF-8" standalone="no"?>
<svg
   id="visual"
   viewBox="0 0 900 325"
   width="900"
   height="325"
   version="1.1"
   xmlns="http://www.w3.org/2000/svg"
   xmlns:svg="http://www.w3.org/2000/svg">
  <defs
     id="defs1" />
  <path
     d="m 0,3 h 75 v 87 h 75 V 70 h 75 V 38 h 75 V 1 h 75 v 79 h 75 v 26 h 75 v 1 h 75 V 38 h 75 V 13 h 75 v 86 h 75 V 13 h 75 v 24 184 0 h -75 v 0 h -75 v 0 h -75 v 0 h -75 v 0 h -75 v 0 h -75 v 0 h -75 v 0 h -75 v 0 h -75 v 0 h -75 v 0 H 75 v 0 H 0 Z"
     fill="#c69e31"
     id="path1" />
  <path
     d="m 901,322 h -75 v -87 h -75 v 20 h -75 v 32 h -75 v 37 h -75 v -79 h -75 v -26 h -75 v -1 h -75 v 69 h -75 v 25 H 151 V 226 H 76 v 86 H 1 v -24 -184 0 h 75 v 0 h 75 v 0 h 75 v 0 h 75 v 0 h 75 v 0 h 75 v 0 h 75 v 0 h 75 v 0 h 75 v 0 h 75 v 0 h 75 v 0 h 75 z"
     fill="#c69e31"
     id="path1-4" />
</svg>
