<svg id="visual" viewBox="0 0 2000 300" width="2000" height="300" xmlns="http://www.w3.org/2000/svg" xmlns:xlink="http://www.w3.org/1999/xlink" version="1.1"><path d="M0 104L77 104L77 225L154 225L154 34L231 34L231 118L308 118L308 276L385 276L385 61L462 61L462 27L538 27L538 277L615 277L615 226L692 226L692 49L769 49L769 178L846 178L846 63L923 63L923 148L1000 148L1000 132L1077 132L1077 271L1154 271L1154 280L1231 280L1231 10L1308 10L1308 248L1385 248L1385 69L1462 69L1462 50L1538 50L1538 161L1615 161L1615 21L1692 21L1692 94L1769 94L1769 269L1846 269L1846 28L1923 28L1923 85L2000 85L2000 142L2000 301L2000 301L1923 301L1923 301L1846 301L1846 301L1769 301L1769 301L1692 301L1692 301L1615 301L1615 301L1538 301L1538 301L1462 301L1462 301L1385 301L1385 301L1308 301L1308 301L1231 301L1231 301L1154 301L1154 301L1077 301L1077 301L1000 301L1000 301L923 301L923 301L846 301L846 301L769 301L769 301L692 301L692 301L615 301L615 301L538 301L538 301L462 301L462 301L385 301L385 301L308 301L308 301L231 301L231 301L154 301L154 301L77 301L77 301L0 301Z" fill="#dd9912" stroke-linecap="square" stroke-linejoin="miter"></path></svg>